<?xml version="1.0" standalone="no"?>
<!DOCTYPE svg PUBLIC "-//W3C//DTD SVG 20010904//EN"
 "http://www.w3.org/TR/2001/REC-SVG-20010904/DTD/svg10.dtd">
<svg version="1.0" xmlns="http://www.w3.org/2000/svg"
 width="688.000000pt" height="688.000000pt" viewBox="0 0 688.000000 688.000000"
 preserveAspectRatio="xMidYMid meet">
<metadata>
Created by potrace 1.14, written by Peter Selinger 2001-2017
</metadata>
<g transform="translate(0.000000,688.000000) scale(0.100000,-0.100000)"
fill="#000000" stroke="none">
<path d="M2994 6528 c-119 -78 -193 -141 -443 -377 -20 -18 -52 -46 -73 -62
l-36 -29 -12 37 c-17 51 -24 57 -51 42 -87 -45 -247 -205 -435 -431 -39 -46
-84 -75 -102 -64 -5 3 -13 22 -17 43 -4 20 -15 54 -26 75 -10 20 -19 45 -19
55 0 11 -9 36 -20 58 -11 22 -20 44 -20 49 0 18 -63 141 -88 171 -33 40 -43
38 -56 -9 -6 -22 -17 -41 -24 -44 -14 -4 -48 31 -120 125 -92 122 -133 159
-239 218 -44 25 -53 27 -67 16 -10 -8 -14 -21 -11 -32 9 -28 -4 -59 -24 -59
-9 0 -41 16 -71 35 -30 20 -75 45 -100 56 -25 11 -58 27 -73 35 -16 8 -33 12
-38 8 -13 -8 -11 -78 3 -93 11 -11 9 -12 -9 -7 -13 3 -33 9 -45 12 -13 3 -45
16 -73 29 -112 52 -226 78 -248 56 -8 -8 -5 -17 12 -32 12 -12 20 -28 17 -36
-3 -8 -6 -18 -6 -22 0 -5 -58 -11 -129 -15 -190 -10 -283 -22 -319 -43 -29
-16 -32 -23 -31 -63 l0 -45 71 -35 c39 -19 78 -46 86 -59 15 -22 14 -27 -11
-75 -14 -28 -29 -61 -32 -73 -9 -31 25 -38 72 -14 58 30 203 66 235 58 37 -10
54 -42 39 -74 -6 -13 -11 -39 -11 -58 0 -28 4 -35 19 -35 10 0 24 6 30 14 7 8
33 19 59 25 26 6 72 18 102 26 66 18 126 19 137 3 4 -7 10 -35 13 -63 6 -57
-3 -55 155 -40 127 12 197 -18 167 -72 -12 -20 3 -59 26 -68 8 -3 60 -10 116
-15 124 -13 156 -19 156 -31 0 -12 17 -10 -182 -18 -98 -4 -180 -10 -184 -13
-3 -4 4 -16 16 -28 35 -35 13 -47 -98 -55 -53 -3 -110 -11 -127 -16 -16 -5
-74 -16 -128 -24 -54 -9 -111 -22 -127 -30 -16 -8 -34 -15 -41 -15 -18 0 -149
-64 -149 -73 0 -9 33 -23 73 -31 34 -8 34 -16 -1 -38 -15 -10 -34 -22 -42 -27
-8 -6 -31 -17 -50 -26 -37 -16 -57 -27 -107 -62 -17 -13 -35 -23 -40 -23 -10
0 -63 -59 -63 -70 0 -5 17 -10 37 -12 51 -4 55 -30 11 -65 -64 -53 -198 -187
-198 -199 0 -6 -7 -17 -15 -24 -8 -7 -15 -21 -15 -31 0 -16 5 -18 25 -13 52
13 68 -41 30 -102 -36 -56 -48 -138 -51 -329 -3 -152 -1 -186 9 -172 7 11 26
42 44 70 18 29 36 57 41 63 5 5 15 20 21 32 17 32 66 29 95 -5 22 -26 25 -26
48 -11 20 13 26 30 37 97 6 45 21 100 31 124 11 23 20 51 20 63 0 11 6 28 13
38 13 18 15 18 50 1 20 -9 37 -21 37 -26 0 -5 7 -9 16 -9 16 0 56 80 69 138 9
42 52 128 87 172 l26 33 32 -26 c43 -36 66 -34 87 7 49 93 68 120 124 181 80
85 149 118 149 71 0 -8 6 -18 13 -24 10 -8 27 -2 68 27 60 41 56 39 230 129
67 34 126 62 132 62 6 0 18 6 26 14 15 13 41 20 69 17 20 -2 14 -21 -10 -30
-13 -5 -32 -18 -42 -30 -11 -11 -23 -21 -28 -21 -6 0 -22 -9 -36 -21 -15 -11
-63 -43 -107 -71 -119 -77 -205 -154 -205 -185 0 -20 4 -24 18 -18 19 7 22 8
40 6 6 0 12 -7 11 -13 0 -14 -3 -16 -151 -138 -85 -71 -158 -148 -235 -249
-48 -61 -143 -266 -143 -306 0 -9 51 -5 71 6 27 14 49 5 43 -18 -3 -11 -25
-46 -49 -79 -25 -32 -53 -70 -62 -83 -65 -87 -94 -129 -105 -151 -7 -14 -19
-36 -29 -50 -9 -14 -22 -43 -29 -65 -7 -22 -16 -45 -21 -51 -5 -6 -6 -14 -2
-17 11 -12 60 -7 72 6 6 8 30 19 53 26 24 7 48 17 55 23 8 6 15 3 23 -12 10
-19 1 -43 -65 -178 -42 -87 -81 -165 -86 -174 -5 -9 -22 -58 -39 -109 -31 -95
-37 -143 -20 -169 9 -13 12 -12 25 5 22 30 78 85 86 85 20 0 19 -66 -3 -147
-21 -81 -23 -108 -23 -338 l0 -250 29 -77 c16 -43 32 -78 37 -78 4 0 13 19 19
43 6 23 18 65 25 92 8 28 18 77 24 110 5 33 16 78 25 100 8 22 20 59 26 83 6
23 14 42 19 42 15 0 51 -46 65 -85 22 -62 58 -119 93 -149 28 -23 32 -24 35
-9 2 10 -2 50 -8 88 -26 157 -28 405 -4 445 12 19 55 4 68 -24 12 -27 67 -61
82 -51 6 3 10 45 10 93 1 129 17 328 35 407 8 39 15 88 15 110 1 46 51 197 67
202 6 2 18 -16 26 -40 8 -24 27 -64 43 -88 l27 -44 13 30 c7 17 13 44 14 61 0
17 6 53 14 80 8 27 19 83 25 124 6 42 17 91 24 110 8 19 18 55 22 80 4 25 16
62 26 82 11 21 19 43 19 51 0 7 6 21 13 31 12 17 16 17 43 3 17 -9 36 -23 43
-31 39 -47 68 2 85 142 8 61 21 141 30 179 48 207 72 293 85 306 20 20 58 -20
71 -75 7 -29 21 -71 31 -93 10 -22 19 -48 19 -58 0 -11 7 -33 15 -50 14 -30
33 -90 75 -237 11 -36 26 -87 35 -115 9 -27 24 -79 35 -115 11 -36 31 -103 45
-150 14 -47 25 -93 25 -102 0 -10 9 -44 19 -75 21 -65 44 -150 70 -268 10 -44
26 -107 35 -140 9 -32 16 -69 16 -81 0 -11 8 -45 19 -75 10 -30 21 -80 25
-113 4 -32 14 -76 21 -97 8 -21 17 -67 21 -101 3 -35 14 -97 24 -138 10 -41
22 -100 25 -130 4 -30 13 -80 20 -110 8 -30 19 -104 25 -164 6 -60 17 -136 25
-170 7 -34 19 -122 25 -196 6 -74 15 -153 20 -175 8 -37 38 -411 45 -565 2
-36 7 -88 10 -117 7 -48 -1 -131 -11 -121 -2 3 -8 28 -14 56 -5 29 -18 64 -29
80 -11 15 -22 48 -26 75 -3 26 -14 55 -24 65 -11 10 -21 39 -24 71 -8 64 -23
86 -33 47 -9 -38 1 -104 20 -125 9 -10 16 -36 16 -62 1 -24 8 -62 16 -84 9
-22 22 -69 28 -105 7 -36 20 -87 29 -115 9 -27 17 -77 19 -110 3 -51 0 -60
-15 -63 -24 -5 -77 45 -77 72 -1 12 -8 39 -16 61 -15 39 -32 104 -72 285 -11
47 -29 114 -40 150 -12 36 -24 78 -28 95 -5 28 -6 28 -16 10 -6 -11 -16 -23
-22 -27 -14 -10 -35 37 -36 80 0 18 -9 54 -19 80 -11 26 -25 72 -31 102 -6 30
-17 61 -24 70 -8 8 -17 37 -21 64 -8 61 -15 77 -26 70 -14 -8 -11 -130 6 -193
7 -31 19 -95 25 -144 6 -48 15 -99 20 -112 5 -14 16 -67 25 -118 8 -50 21
-117 30 -147 19 -69 19 -131 0 -156 -19 -25 -19 -68 0 -84 11 -9 15 -28 13
-65 -2 -43 3 -60 25 -92 15 -21 27 -43 27 -47 0 -4 7 -22 14 -39 51 -111 79
-226 55 -228 -25 -2 -93 1 -171 7 -72 6 -76 5 -83 -16 -4 -13 0 -31 12 -48 10
-15 27 -54 38 -87 l21 -60 1009 -3 c933 -2 1008 -1 986 14 -12 9 -32 35 -42
58 -26 55 -48 98 -59 116 -5 8 -50 97 -100 197 -51 101 -95 185 -100 188 -4 3
-11 17 -15 32 -3 15 -15 39 -25 53 -10 14 -22 38 -25 53 -12 46 -85 84 -85 44
0 -6 -11 -27 -24 -46 -13 -20 -38 -60 -56 -88 -18 -29 -37 -53 -40 -53 -14 0
-60 69 -60 89 0 12 9 38 20 58 11 21 20 43 20 49 0 7 12 36 26 66 15 29 35 71
44 93 58 129 73 162 81 175 4 8 38 74 75 145 36 72 79 153 94 180 16 28 35 64
44 80 9 17 29 53 45 80 16 28 37 64 45 80 9 17 30 50 46 75 16 25 36 59 44 76
8 17 22 36 30 44 9 7 16 18 16 24 0 6 16 34 35 61 20 28 43 61 52 75 101 153
155 232 198 288 168 219 289 367 298 367 19 0 20 -111 2 -205 -9 -47 -15 -112
-13 -145 l3 -60 33 0 c18 -1 38 -7 43 -15 10 -15 7 -136 -8 -327 l-6 -83 26 0
c16 0 32 8 39 20 7 11 16 20 20 20 14 0 19 -68 9 -121 -6 -30 -20 -99 -30
-154 -11 -55 -23 -111 -29 -125 -15 -41 -23 -114 -13 -129 8 -12 14 -13 36 -3
15 7 31 10 36 7 16 -10 10 -74 -11 -115 -11 -22 -20 -45 -20 -52 0 -7 -11 -35
-25 -63 -49 -101 -21 -136 49 -61 32 35 47 45 61 40 16 -7 17 -17 10 -140 -6
-130 -3 -174 15 -174 10 0 70 114 70 133 0 7 9 28 19 48 11 20 23 54 27 75 4
22 15 59 24 84 10 25 20 70 24 100 9 76 19 90 45 66 20 -18 22 -18 41 -1 24
22 26 94 7 279 -11 99 -10 121 1 132 18 18 17 18 45 -11 20 -22 27 -24 50 -16
24 9 26 13 17 36 -5 14 -15 56 -20 93 -6 37 -18 81 -26 97 -8 17 -18 51 -21
78 l-6 47 37 0 c32 0 36 3 36 27 0 47 -32 187 -51 223 -11 19 -19 40 -19 47 0
6 -21 51 -46 100 -38 74 -45 97 -45 144 0 45 -5 64 -25 90 -13 18 -24 38 -24
44 0 5 -9 16 -20 23 -11 7 -20 21 -20 32 0 11 -6 20 -14 20 -17 0 -21 5 -30
43 -5 20 -3 27 8 27 8 0 17 -8 21 -19 5 -18 28 -45 99 -121 52 -55 77 -70 116
-70 20 0 43 -6 52 -12 17 -15 53 -112 64 -173 9 -53 20 -66 48 -55 42 16 50
-1 56 -114 3 -57 9 -108 13 -112 4 -5 20 -8 35 -9 43 0 53 -34 46 -146 -7
-103 1 -125 35 -95 30 27 49 9 73 -67 43 -142 57 -128 98 93 5 25 9 75 9 112
1 56 5 71 26 96 14 17 25 37 25 45 0 15 -58 135 -82 169 -10 13 -9 21 5 36 31
34 21 65 -44 136 -38 41 -59 72 -55 81 3 8 10 15 16 15 37 0 -54 107 -115 136
-16 7 -37 18 -45 23 -8 6 -52 27 -97 48 -74 34 -83 41 -83 66 0 23 -7 31 -45
47 -54 23 -57 37 -10 46 27 5 36 12 41 33 3 14 7 32 10 39 5 17 49 15 85 -3
16 -9 50 -19 74 -24 41 -8 47 -6 64 15 32 40 76 27 174 -50 38 -30 39 -30 53
-11 8 10 14 31 14 46 0 15 4 30 9 34 15 9 124 -53 173 -99 27 -24 42 -8 43 47
0 58 9 67 63 68 82 2 107 11 110 40 2 21 -4 31 -35 50 -55 34 -186 99 -199 99
-13 0 -79 70 -86 91 -5 15 -95 19 -168 9 -34 -5 -35 -4 -33 25 1 16 -3 33 -10
37 -20 13 -80 9 -130 -8 -58 -19 -80 -14 -72 19 9 32 -16 51 -57 43 -33 -7
-133 -53 -183 -86 -16 -11 -47 -29 -67 -40 l-37 -20 -16 30 c-9 16 -19 30 -23
30 -11 0 -110 -104 -162 -170 -60 -76 -67 -81 -95 -68 -23 10 -45 53 -45 85 0
15 -38 103 -70 165 -21 40 -26 98 -10 114 6 6 5 17 -6 32 -11 16 -25 22 -55
22 -39 0 -39 0 -39 40 l0 40 -40 0 -40 0 0 43 c0 55 -13 68 -51 55 -31 -10
-59 2 -59 26 0 6 -14 31 -30 56 -17 25 -36 54 -43 64 -21 33 -81 96 -91 96 -5
0 -18 8 -29 17 -18 17 -19 17 -15 -17 2 -29 0 -35 -18 -38 -12 -2 -42 12 -68
30 -26 18 -60 40 -76 49 -17 9 -36 22 -44 28 -8 7 -28 16 -45 21 -30 8 -32 7
-38 -21 -3 -16 -9 -32 -14 -35 -10 -6 -106 21 -123 35 -6 5 -40 14 -76 21
-124 22 -169 39 -213 83 -43 43 -133 107 -150 107 -5 0 -20 9 -34 20 -14 11
-33 20 -42 20 -9 0 -29 7 -46 16 -27 15 -75 30 -205 64 -25 7 -65 19 -90 27
-25 8 -74 21 -109 29 -36 8 -67 17 -69 19 -3 3 16 23 41 46 26 22 47 44 47 49
0 15 -189 119 -219 120 -7 0 -30 9 -50 20 -20 10 -55 24 -77 30 -23 5 -47 17
-54 25 -7 8 -25 15 -40 15 -42 0 -93 21 -81 33 14 14 100 10 125 -6 12 -8 46
-18 76 -22 30 -3 71 -15 90 -25 20 -9 51 -21 70 -25 19 -4 51 -16 70 -26 19
-11 43 -19 53 -19 10 0 34 -8 55 -19 20 -10 54 -23 74 -29 50 -14 68 6 68 77
0 46 3 52 26 61 15 6 43 7 63 4 38 -7 208 -92 249 -125 14 -10 30 -19 37 -19
7 0 18 -6 24 -14 20 -24 112 -68 128 -61 13 4 14 18 9 75 -6 61 -5 70 11 79
14 7 32 3 74 -17 54 -27 214 -142 277 -201 43 -40 121 -44 81 -4 -6 6 -13 38
-16 72 -7 77 4 94 50 79 37 -13 149 -95 222 -163 78 -73 119 -102 138 -97 21
4 21 10 1 106 -16 79 -11 106 21 106 8 0 75 -31 150 -70 129 -66 195 -86 195
-58 0 34 -125 191 -263 332 -50 51 -84 93 -79 98 5 5 32 11 60 15 68 8 80 22
44 56 -57 55 -298 121 -482 132 -101 6 -247 22 -292 31 -33 7 -43 30 -24 59 8
12 16 35 18 51 3 27 0 29 -35 32 -21 2 -60 -2 -85 -8 -26 -6 -78 -18 -115 -26
-37 -7 -77 -19 -89 -25 -12 -6 -44 -17 -72 -25 -28 -7 -61 -16 -73 -19 -21 -7
-23 -4 -23 24 0 17 6 40 13 52 10 17 9 22 -7 35 -52 38 -365 -9 -478 -71 -14
-8 -32 -15 -40 -15 -7 0 -30 -9 -51 -20 -62 -34 -93 -25 -65 20 7 10 9 23 4
27 -13 13 -119 7 -172 -10 -27 -9 -69 -19 -94 -23 -25 -3 -67 -15 -94 -26 -55
-21 -121 -21 -121 1 0 8 18 20 39 28 22 7 47 20 56 28 9 8 22 15 29 15 7 0 34
11 60 24 95 48 248 116 264 116 5 0 28 9 51 19 23 11 62 26 89 35 150 50 153
53 116 92 l-21 22 20 11 c82 44 391 60 501 27 69 -20 80 -12 57 48 -10 25 -15
50 -11 56 15 25 97 11 275 -47 125 -40 178 -55 214 -60 l39 -5 -6 30 c-12 59
58 72 142 27 14 -7 58 -28 96 -45 39 -17 77 -35 85 -40 41 -25 161 -80 175
-80 17 0 19 7 16 66 -3 45 15 62 47 45 9 -4 35 -12 57 -16 22 -4 59 -15 82
-26 23 -10 50 -19 61 -19 10 0 49 -10 86 -21 93 -29 102 -16 33 52 -30 30 -70
64 -88 77 -114 78 -245 153 -416 237 -51 25 -95 50 -98 55 -3 4 -18 11 -34 15
-33 7 -86 59 -77 74 4 6 19 11 34 11 36 1 67 24 50 38 -22 17 -183 34 -393 41
-240 8 -287 24 -204 66 18 10 29 23 29 37 0 20 -3 20 -77 14 -43 -4 -102 -16
-133 -26 -30 -10 -73 -22 -95 -26 -22 -4 -58 -15 -80 -25 -50 -23 -103 -25
-111 -4 -4 8 6 31 20 50 l27 35 -59 0 c-49 0 -66 -5 -108 -32z m-1409 -968 c4
-6 -10 -10 -34 -10 -22 0 -43 5 -46 10 -4 6 10 10 34 10 22 0 43 -4 46 -10z
m620 -747 c17 -20 40 -46 53 -58 12 -12 22 -25 22 -29 0 -3 28 -42 63 -87 91
-118 115 -152 127 -174 6 -11 24 -38 41 -60 16 -22 40 -55 51 -73 24 -39 67
-60 79 -40 4 7 11 47 15 89 3 42 10 82 14 88 28 47 173 -133 256 -319 9 -19
36 -76 60 -127 24 -50 44 -95 44 -99 0 -4 6 -15 14 -23 7 -9 28 -43 45 -76
l31 -60 -21 -17 c-12 -10 -28 -18 -36 -18 -7 0 -26 -8 -41 -19 -79 -54 -147
-98 -173 -110 -35 -18 -37 -28 -5 -42 21 -10 132 -2 196 13 6 2 18 -6 26 -17
12 -18 11 -25 -6 -58 -32 -58 -24 -81 18 -57 9 5 35 16 57 24 22 8 61 23 88
33 64 24 80 13 87 -58 6 -64 25 -74 73 -39 38 29 61 17 65 -31 2 -19 9 -69 17
-113 8 -43 15 -125 15 -182 l0 -103 -60 -43 c-48 -34 -60 -47 -60 -69 0 -15 5
-31 10 -34 21 -13 8 -40 -49 -99 -118 -123 -149 -159 -171 -203 -20 -39 -21
-48 -9 -70 10 -19 11 -28 1 -41 -7 -9 -16 -26 -21 -37 -5 -11 -28 -50 -52 -87
-102 -156 -104 -165 -44 -154 62 12 69 -42 19 -149 -29 -62 -30 -102 -3 -131
l21 -22 -21 -94 c-37 -160 -38 -160 -76 -45 -24 70 -29 106 -35 248 -9 179
-29 279 -77 376 -16 34 -23 61 -19 75 36 125 35 122 15 218 -10 50 -25 103
-33 118 -56 104 -60 118 -42 161 23 60 20 119 -11 187 -26 58 -35 74 -82 143
-22 32 -23 37 -11 87 16 67 0 131 -65 260 -42 84 -45 93 -45 174 0 97 -10 122
-91 226 -53 69 -56 78 -35 128 12 30 12 40 -4 87 -9 30 -34 82 -55 117 -31 54
-38 76 -45 152 -5 48 -15 99 -23 112 -8 12 -17 35 -21 49 -3 14 -15 36 -26 49
-11 13 -20 28 -20 35 0 7 -9 20 -20 30 -11 10 -22 27 -26 38 -4 12 -16 28 -27
37 -13 11 -18 23 -14 33 9 24 18 21 52 -20z m1295 -348 c14 -8 40 -21 58 -30
38 -18 41 -32 8 -46 -39 -18 -107 -3 -145 32 -27 24 -31 32 -21 44 16 19 68
19 100 0z m406 -380 c26 -11 40 -25 51 -55 14 -34 22 -42 57 -51 23 -6 64 -19
91 -29 28 -11 64 -22 80 -26 46 -10 95 -52 115 -98 17 -39 50 -74 248 -257 76
-71 97 -99 72 -99 -6 0 -32 15 -58 33 -57 41 -148 87 -170 87 -8 0 -24 -7 -33
-16 -17 -16 -23 -13 -90 42 -125 103 -169 129 -266 153 -35 9 -53 -1 -53 -31
0 -45 -41 -27 -175 75 -100 77 -203 219 -172 239 20 13 44 9 86 -13 46 -24 65
-18 57 18 -4 13 -4 28 -1 33 9 15 122 12 161 -5z m-723 -98 c20 -14 32 -74 23
-111 -5 -22 -12 -26 -41 -26 -48 0 -60 24 -45 95 12 58 28 68 63 42z m807
-577 c15 -8 17 -15 10 -41 -5 -17 -5 -40 0 -53 7 -20 18 -24 77 -30 136 -13
159 -27 72 -42 -62 -11 -82 -33 -55 -63 17 -19 17 -20 -3 -31 -14 -7 -54 -9
-121 -4 -125 9 -143 23 -163 131 -8 40 -11 76 -8 81 9 14 123 61 149 62 13 0
32 -4 42 -10z m1245 -60 c3 -6 -1 -13 -9 -16 -23 -9 -108 5 -101 17 8 12 102
12 110 -1z m-892 -57 c-13 -2 -35 -2 -50 0 -16 2 -5 4 22 4 28 0 40 -2 28 -4z
m697 -99 c0 -22 -2 -25 -15 -14 -8 7 -15 19 -15 26 0 8 7 14 15 14 10 0 15
-10 15 -26z m-590 -209 c0 -7 -41 -65 -88 -125 -58 -74 -132 -172 -160 -212
-33 -47 -130 -181 -140 -193 -4 -5 -28 -41 -54 -80 -25 -38 -59 -87 -75 -107
-15 -21 -50 -69 -78 -109 -27 -39 -71 -98 -97 -131 -34 -43 -48 -70 -48 -92 0
-42 -33 -101 -88 -158 -64 -66 -75 -91 -68 -147 6 -45 4 -49 -45 -106 -46 -54
-97 -147 -114 -207 -12 -41 -66 -148 -75 -148 -5 0 -17 14 -25 31 -14 27 -15
52 -7 197 9 159 5 303 -10 317 -8 9 -16 -69 -22 -230 -3 -83 -11 -144 -20
-166 -8 -20 -20 -96 -26 -169 -7 -72 -18 -149 -25 -170 -7 -21 -17 -58 -20
-83 -14 -92 -39 -86 -51 13 -11 84 5 350 26 453 10 51 20 133 22 183 3 80 0
95 -17 114 -30 33 -32 141 -5 281 25 133 32 146 67 124 26 -18 43 -12 43 13 0
9 11 40 25 67 13 28 25 55 25 60 0 6 9 26 19 46 11 20 24 55 31 77 l11 42 52
0 c58 0 54 -4 127 136 36 70 92 129 113 121 9 -3 16 -26 20 -61 3 -30 9 -61
13 -67 4 -7 23 19 48 63 53 95 80 132 130 178 112 103 132 119 138 120 4 0 19
11 34 25 21 19 30 22 45 14 17 -8 19 -17 13 -58 -10 -80 3 -78 166 29 46 30
92 63 102 73 10 9 24 17 32 17 8 0 16 7 20 15 5 13 36 22 36 10z"/>
<path d="M3175 1738 c-4 -10 -4 -26 0 -35 8 -17 8 -17 12 0 3 9 3 25 0 35 -4
16 -4 16 -12 0z"/>
</g>
</svg>
