<svg width="79" height="74" viewBox="0 0 79 74" fill="none" xmlns="http://www.w3.org/2000/svg">
<path d="M62.5712 0H16.1982C7.26646 0 0 7.26646 0 16.1982C0 25.1292 7.26585 32.3954 16.1966 32.3963H16.1974H16.198H62.5711C71.5028 32.3963 78.7691 25.1298 78.7691 16.1982C78.7691 7.26646 71.5029 0 62.5712 0Z" fill="#3DE9F2"/>
<path d="M78.7693 16.1985C78.7693 25.1292 71.5031 32.3969 62.5708 32.3969H33.7616V0H62.5708C71.5031 0 78.7693 7.26615 78.7693 16.1985Z" fill="#00CEF2"/>
<path d="M62.5712 27.7807H16.1981C9.81136 27.7807 4.61536 22.5847 4.61536 16.1981C4.61536 9.81151 9.81136 4.61536 16.1981 4.61536H62.5712C68.9578 4.61536 74.1538 9.81136 74.1538 16.1981C74.1538 22.5849 68.9578 27.7807 62.5712 27.7807V27.7807Z" fill="#70FFFF"/>
<path d="M74.1539 16.1984C74.1539 22.5846 68.9585 27.7815 62.5708 27.7815H33.7616V4.61536H62.5708C68.9585 4.61536 74.1539 9.81074 74.1539 16.1984Z" fill="#3DE9F2"/>
<path d="M60.3004 45.8169V63.5385L59.6256 64.3077H29.0458L27.9927 63.5369L17.1204 54.4154C15.925 53.4108 15.182 51.9415 15.0835 50.3846C14.9835 48.8262 15.5343 47.2754 16.5943 46.1277C18.6758 43.8738 22.1466 43.6538 24.4958 45.6262L27.9927 48.56V19.7692C27.9927 16.5877 30.5804 14 33.762 14C36.9435 14 39.5312 16.5877 39.5312 19.7692V37.3185L54.1389 38.9354C57.6512 39.3246 60.3004 42.2831 60.3004 45.8169V45.8169Z" fill="#FDDBCC"/>
<path d="M60.3001 45.8169V63.5385L59.6247 64.3077H33.7616V14C36.9431 14 39.5308 16.5877 39.5308 19.7692V37.3185L54.1385 38.9354C57.6508 39.3246 60.3001 42.2831 60.3001 45.8169Z" fill="#FBCDBE"/>
<path d="M60.3 63.5385V71.6923C60.3 72.9661 59.2662 74 57.9923 74H30.3C29.0262 74 27.9923 72.9661 27.9923 71.6923V63.5385H60.3Z" fill="#00347B"/>
<path d="M60.3001 63.5385V71.6923C60.3001 72.9661 59.2662 74 57.9924 74H33.7616V63.5385H60.3001Z" fill="#002860"/>
<path d="M64.0781 9.90676C63.177 9.00553 61.7158 9.00553 60.8146 9.90676L53.2155 17.5057L50.2318 14.5221C49.3307 13.6209 47.8695 13.6209 46.9683 14.5221C46.0671 15.4234 46.0671 16.8845 46.9683 17.7857L51.5837 22.4011C52.4847 23.3023 53.946 23.3025 54.8472 22.4011L64.078 13.1703C64.9794 12.2691 64.9794 10.8078 64.0781 9.90676V9.90676Z" fill="#00CEF2"/>
</svg>
