<svg width="79" height="74" viewBox="0 0 79 74" fill="none" xmlns="http://www.w3.org/2000/svg">
<path d="M39.1968 13.8091C35.3896 13.8091 32.2922 10.7117 32.2922 6.90455C32.2922 3.09738 35.3896 0 39.1968 0C43.0039 0 46.1013 3.09738 46.1013 6.90455C46.1013 10.7117 43.0039 13.8091 39.1968 13.8091Z" fill="#4FDAE1"/>
<path d="M71.4753 69.7346C70.3046 69.7346 69.1193 69.4372 68.0347 68.8109C64.7375 66.9072 63.6038 62.6763 65.5075 59.3791C67.411 56.082 71.6419 54.9486 74.9392 56.8518C78.2362 58.7554 79.3699 62.9865 77.4664 66.2837C76.1891 68.496 73.8632 69.7346 71.4753 69.7346Z" fill="#16AAC8"/>
<path d="M44.7761 74L43.4341 60.1573L45.1108 59.5479C46.3952 59.0811 47.6207 58.4478 48.7456 57.6748L42.1228 53.8512L49.0273 41.8922L55.6502 45.7158C55.7571 44.3551 55.6928 42.9771 55.455 41.6314L55.1446 39.8749L62.0332 36.7396L62.0328 36.7408L67.8036 34.1155L68.5022 36.7477C70.5474 44.4536 69.4837 52.491 65.5068 59.3791C61.5299 66.2672 55.1014 71.2072 47.4051 73.2889L44.7761 74Z" fill="#16AAC8"/>
<path d="M6.91906 69.7346C4.53101 69.7346 2.2054 68.4963 0.928062 66.2837C0.00592205 64.6866 -0.239113 62.8259 0.238222 61.0445C0.715556 59.2631 1.85803 57.7742 3.45513 56.8519C6.75228 54.9484 10.9834 56.0821 12.8869 59.3793C14.7905 62.6764 13.6568 66.9074 10.3597 68.811C9.2752 69.437 8.08961 69.7346 6.91906 69.7346Z" fill="#4FDAE1"/>
<path d="M33.6172 74L30.9883 73.2889C23.292 71.2072 16.8634 66.2672 12.8865 59.3791C8.90968 52.491 7.84592 44.4538 9.8912 36.7477L10.5898 34.1155L23.2489 39.8745L22.9383 41.6314C22.7005 42.9771 22.6362 44.3551 22.7432 45.7159L29.366 41.8922L36.2705 53.8512L29.6477 57.6748C30.7727 58.4478 31.9982 59.0811 33.2826 59.5479L34.9596 60.1575L33.6172 74Z" fill="#4FDAE1"/>
<path d="M46.032 36.8243H32.2229V29.188C31.0358 29.7657 29.9088 30.501 28.8523 31.3883L27.4861 32.5355L16.1691 24.452L18.0994 22.5308C23.7504 16.9065 31.2428 13.8091 39.1965 13.8091C47.1502 13.8091 54.6426 16.9065 60.2936 22.5308L62.2239 24.452L50.9069 32.5355L49.5407 31.3883C48.4888 30.5049 47.3038 29.7545 46.0321 29.1607V36.8243H46.032Z" fill="#4FDAE1"/>
<path d="M46.0318 36.8243V29.1607C47.3035 29.7545 48.4885 30.5048 49.5404 31.3883L50.9066 32.5355L62.2236 24.452L60.2932 22.5308C54.6422 16.9065 47.1499 13.8091 39.1962 13.8091V36.8243H46.0318V36.8243Z" fill="#16AAC8"/>
<path d="M46.1006 6.90455C46.1006 3.09738 43.0032 0 39.196 0V13.8091C43.0032 13.8091 46.1006 10.7117 46.1006 6.90455Z" fill="#16AAC8"/>
</svg>
