<svg width="74" height="74" viewBox="0 0 74 74" fill="none" xmlns="http://www.w3.org/2000/svg">
<path d="M73.6796 46.1188C72.594 54.7471 68.8977 62.681 62.9912 69.064C62.9867 69.0679 62.9828 69.0725 62.9788 69.077L59.2239 73.0848C58.6548 73.6923 57.8847 73.9994 57.1135 73.9994C56.405 73.9994 55.6953 73.7403 55.1375 73.2181C53.9728 72.1262 53.913 70.297 55.0049 69.1317L58.7542 65.1301C63.8319 59.6402 67.0098 52.8169 67.9436 45.3973C68.1429 43.8137 69.5882 42.6908 71.1724 42.8901C72.7566 43.0894 73.8789 44.5352 73.6796 46.1188V46.1188ZM62.4408 43.108L62.4555 15.9924C62.4555 15.9636 62.4549 15.9348 62.4543 15.906C62.4317 15.1427 62.7033 14.4251 63.2176 13.8848C63.7382 13.3389 64.4546 13.0261 65.2348 13.003C66.0207 12.9804 66.762 13.2531 67.3215 13.7714C67.8635 14.2733 68.1774 14.9575 68.2078 15.7016L68.2112 31.361C68.2112 32.9571 69.5058 34.2511 71.1018 34.2511H71.1024C72.699 34.2511 73.993 32.9565 73.9924 31.3599L73.9896 15.6514C73.9896 15.6237 73.989 15.5955 73.9879 15.5672C73.9201 13.2469 72.9479 11.1026 71.2509 9.53033C69.5724 7.97551 67.3757 7.15632 65.066 7.22407C62.7536 7.29182 60.611 8.24029 59.033 9.8956C57.4551 11.5509 56.6184 13.7273 56.6737 16.0285L56.6636 35.4649C53.502 34.3611 49.8408 35.1476 47.4199 37.7638L37.099 49.0004L26.6003 37.7559C24.1829 35.1431 20.5182 34.3589 17.355 35.4683L17.3448 16.0285C17.4001 13.7155 16.5211 11.5249 14.8669 9.85552C13.2523 8.22617 11.0956 7.29125 8.79387 7.22407C6.4718 7.15575 4.28974 7.98736 2.64516 9.5642C1.01751 11.1247 0.0837148 13.257 0.0159667 15.5672C0.0148377 15.5955 0.0148377 15.6237 0.0148377 15.6519L0.0103211 40.0514C-0.226797 50.938 3.62864 61.2408 10.8687 69.064C10.8726 69.0685 10.8766 69.0725 10.8805 69.077L14.636 73.0848C15.2051 73.6923 15.9746 73.9994 16.7458 73.9994C17.4543 73.9994 18.1646 73.7403 18.7218 73.2181C19.8871 72.1268 19.9463 70.297 18.855 69.1323L15.1057 65.1306C8.88702 58.4078 5.57922 49.5367 5.79093 40.1485C5.79149 40.1271 5.79206 40.1056 5.79206 40.0842L5.79601 15.7016C5.82706 14.931 6.12798 14.2343 6.64625 13.738C7.01209 13.3869 7.65174 12.9731 8.62449 13.0035C9.42449 13.0267 10.203 13.3626 10.7603 13.9255C11.3005 14.4703 11.5862 15.1743 11.5648 15.9066C11.5636 15.9353 11.5631 15.9641 11.5631 15.9929L11.5777 43.2491C11.5619 43.5856 11.567 43.9232 11.5907 44.2591C11.5924 44.2834 11.5936 44.3083 11.5964 44.3325C11.7432 46.2092 12.4957 48.0513 13.8705 49.5367C13.8755 49.5418 13.8801 49.5469 13.8846 49.552L23.7645 60.0789C24.8575 61.243 26.6867 61.3006 27.8508 60.2082C29.015 59.1157 29.0731 57.286 27.9801 56.1218L18.1087 45.6045C17.6587 45.1156 17.412 44.5115 17.3595 43.8956V43.4078C17.4165 42.7122 17.7208 42.0353 18.2718 41.5249C19.4422 40.4427 21.2748 40.5132 22.3655 41.6926L37.1397 57.5163C38.349 58.8239 38.9773 60.5232 38.909 62.3027C38.8402 64.0817 38.0825 65.728 36.775 66.9378L34.5607 68.9872C33.3887 70.0717 33.3181 71.9004 34.4027 73.0724C34.9723 73.6878 35.7475 74 36.5249 74C37.2272 74 37.9318 73.7454 38.4879 73.2305L40.7027 71.1806C45.7403 66.5189 46.0452 58.6274 41.3745 53.5807L41.0561 53.2397L51.6705 41.6836C52.7534 40.5138 54.586 40.4427 55.7557 41.5255C56.2627 41.9941 56.5772 42.6151 56.6596 43.2926L56.659 43.9955C56.5873 44.5962 56.3327 45.1574 55.9138 45.6102C55.902 45.6237 55.8895 45.6367 55.8777 45.6502L49.5867 52.7079C48.5248 53.8997 48.6298 55.7272 49.8216 56.7897C50.3726 57.2809 51.0597 57.522 51.7439 57.522C52.5394 57.522 53.332 57.1956 53.9028 56.5549L60.1769 49.5153C61.8367 47.7098 62.5819 45.3832 62.4408 43.108V43.108ZM22.4039 21.0972V10.1141C22.4039 7.89929 23.6392 5.91483 25.6276 4.93531L34.4439 0.591526C36.0455 -0.197175 37.9583 -0.197175 39.56 0.591526L48.3763 4.93531C50.3647 5.91483 51.6005 7.89929 51.6005 10.1141V21.0966C51.6005 23.3109 50.3652 25.2953 48.3768 26.2754L39.5605 30.6198C38.7594 31.0144 37.881 31.212 37.0019 31.212C36.1229 31.212 35.2444 31.0144 34.4433 30.6198L25.6276 26.2754C23.6392 25.2959 22.4039 23.3114 22.4039 21.0972V21.0972ZM28.1851 21.0972L34.1113 24.0132V15.9139L28.1851 13.0815V21.0972ZM45.821 21.0898L45.8193 13.0854L39.8931 15.9145V24.0087L45.821 21.0898ZM31.7379 8.37127L37.0025 10.8875L42.275 8.3707L37.0053 5.77821L31.7379 8.37127Z" fill="url(#paint0_linear)"/>
<defs>
<linearGradient id="paint0_linear" x1="1.02803e-05" y1="36.9995" x2="73.9926" y2="36.9995" gradientUnits="userSpaceOnUse">
<stop stop-color="#00F2FE"/>
<stop offset="0.0208" stop-color="#03EFFE"/>
<stop offset="0.2931" stop-color="#24D2FE"/>
<stop offset="0.5538" stop-color="#3CBDFE"/>
<stop offset="0.7956" stop-color="#4AB0FE"/>
<stop offset="1" stop-color="#4FACFE"/>
</linearGradient>
</defs>
</svg>
