<svg width="76" height="74" viewBox="0 0 76 74" fill="none" xmlns="http://www.w3.org/2000/svg">
<path fill-rule="evenodd" clip-rule="evenodd" d="M48.5611 1.74986L47.732 5.99693L53.7591 10.3757L61.3648 8.63973L62.1896 4.39266C62.2733 3.96549 61.9885 3.54245 61.5615 3.46284L49.4905 1.12151C49.0636 1.03791 48.6448 1.32269 48.5611 1.74986V1.74986Z" fill="#C7C5CA"/>
<path fill-rule="evenodd" clip-rule="evenodd" d="M43.0918 5.13948C40.3243 4.53225 37.5274 5.57507 36.644 8.31418C37.1338 8.75391 37.7493 40.9867 37.7493 40.9867L68.4597 34.7961L70.7666 15.1702C71.1224 12.1714 68.8657 10.0605 65.9978 9.57901C65.2652 9.41993 63.3978 9.04297 61.363 8.64091C58.5494 8.07962 55.4177 7.47239 54.551 7.31331C53.6885 7.13739 50.5525 6.53016 47.7307 5.99826C45.6959 5.61274 43.8285 5.26503 43.0918 5.13948V5.13948Z" fill="#ECEAED"/>
<path fill-rule="evenodd" clip-rule="evenodd" d="M37.7504 10.0982C37.7504 9.39041 37.4405 8.75379 36.9548 8.31406C36.5278 7.92869 35.9625 7.69427 35.3513 7.69427H33.6263H31.9014C30.5825 7.69427 29.5023 8.77476 29.5023 10.0982V12.4981L33.6263 13.8846L37.7504 12.4981V10.0982Z" fill="#C7C5CA"/>
<path fill-rule="evenodd" clip-rule="evenodd" d="M37.8121 72.892L41.9194 56.0538L37.8121 34.7961L4.38446 45.8614V72.1926C4.38446 72.5737 4.69849 72.892 5.08371 72.892H37.8121Z" fill="#4FDAE1"/>
<path fill-rule="evenodd" clip-rule="evenodd" d="M41.4386 34.7961V16.4727V14.0854C41.4386 13.2101 40.7227 12.4982 39.8518 12.4982H37.4402H29.1963H27.4001C26.5292 12.4982 25.8133 13.2101 25.8133 14.0854V34.7961H36.2678H37.8127H41.4386Z" fill="#FFE07D"/>
<path fill-rule="evenodd" clip-rule="evenodd" d="M41.4381 14.0854C41.4381 13.2101 40.7222 12.4982 39.8513 12.4982H37.7496H37.4397H36.2883C37.1592 12.4982 37.8751 13.2101 37.8751 14.0854V29.1002V34.7961H41.4381V14.0854Z" fill="#FFD064"/>
<path fill-rule="evenodd" clip-rule="evenodd" d="M28.1327 40.7601C33.2616 38.2262 36.6111 31.5125 33.764 25.7412L31.704 21.5657C24.5948 23.9027 22.8782 21.1803 19.3445 22.9394C15.8025 24.6733 16.9119 27.6929 10.7322 31.9147L12.7922 36.0903C15.6393 41.8616 23.0039 43.2898 28.1327 40.7601Z" fill="#CCF49E"/>
<path fill-rule="evenodd" clip-rule="evenodd" d="M31.704 21.5656C24.5948 23.9026 22.8782 21.1802 19.3445 22.9392C15.8025 24.6732 16.9119 27.6928 10.7322 31.9146L12.7922 36.0902C13.0434 36.597 13.3239 37.0661 13.638 37.5058C19.9267 33.2087 18.7961 29.7535 22.4011 27.9903C25.9976 26.202 27.04 29.3514 34.2749 26.9767C34.1368 26.5621 33.965 26.1475 33.7641 25.7411L31.704 21.5656Z" fill="#ECEAED"/>
<path fill-rule="evenodd" clip-rule="evenodd" d="M33.7644 25.7412L31.7045 21.5657C30.1302 22.0809 28.8197 22.3531 27.6978 22.4787L29.7577 26.6542C29.9544 27.0522 30.1178 27.4542 30.2559 27.8563C31.3528 27.76 32.6591 27.5044 34.2752 26.9768C34.137 26.5621 33.9653 26.1474 33.7644 25.7412V25.7412Z" fill="#DAD8DB"/>
<path fill-rule="evenodd" clip-rule="evenodd" d="M34.1153 34.0045C34.9276 31.7889 35.0782 29.3347 34.2744 26.9767C32.6583 27.5044 31.352 27.7598 30.2551 27.8561C30.2592 27.8687 30.2635 27.8771 30.2677 27.8854C31.0548 30.2015 30.925 32.6097 30.1547 34.7959H33.7972C33.9143 34.5364 34.019 34.2726 34.1153 34.0045V34.0045Z" fill="#B3E59E"/>
<path fill-rule="evenodd" clip-rule="evenodd" d="M25.8129 34.7961H16.8448H12.1555H7.16901C7.11879 34.7961 7.06856 34.8002 7.01834 34.8086C6.67507 34.8757 6.29826 35.1521 6.13076 35.4829L4.38485 38.913L1.19021 45.1745C1.00173 45.5515 1.15254 45.8614 1.52935 45.8614H4.3847H31.4902C31.8671 45.8614 32.3317 45.5515 32.5244 45.1745L35.7147 38.9132L37.2052 35.9856L37.8123 34.7961H36.2674H33.7972H25.8129Z" fill="#FFDECF"/>
<path fill-rule="evenodd" clip-rule="evenodd" d="M71.2398 45.8614L37.8121 34.7961V72.892H70.5407C70.9259 72.892 71.2399 72.5737 71.2399 72.1926V45.8614H71.2398Z" fill="#4FDAE1"/>
<path fill-rule="evenodd" clip-rule="evenodd" d="M61.7734 34.7961H41.4379H37.8121L43.1001 45.1745C43.2927 45.5515 43.7617 45.8614 44.1385 45.8614H71.2399H74.0953C74.4721 45.8614 74.627 45.5515 74.4344 45.1745L69.494 35.4831C69.3014 35.102 68.8367 34.7962 68.4599 34.7962H61.7734V34.7961Z" fill="#FFDECF"/>
<path fill-rule="evenodd" clip-rule="evenodd" d="M62.1892 4.39269C62.273 3.96551 61.9882 3.54248 61.5611 3.46286L57.7761 2.72565C58.1319 2.85962 58.3497 3.23657 58.2743 3.62194L57.4537 7.86901C58.647 8.10357 60.0412 8.37579 61.3643 8.6396L62.1892 4.39269Z" fill="#B6B1B7"/>
<path fill-rule="evenodd" clip-rule="evenodd" d="M70.7681 15.1693C71.124 12.1704 68.8673 10.0595 65.9992 9.5778C65.2664 9.41872 63.3991 9.04176 61.3643 8.63955C60.0412 8.37575 58.6469 8.10337 57.4537 7.86896C59.4844 8.27102 61.356 8.64797 62.0845 8.8072C64.9525 9.29302 67.1633 11.3956 66.8577 14.4028L64.7933 34.7961H68.4611L70.7681 15.1693Z" fill="#DAD8DB"/>
<path fill-rule="evenodd" clip-rule="evenodd" d="M37.75 12.4982V10.0982C37.75 9.39041 37.4401 8.75379 36.9545 8.31406C36.8748 8.247 36.7954 8.18009 36.7116 8.12145C36.3223 7.85336 35.8533 7.69427 35.3509 7.69427H33.626H32.7802C34.0991 7.69427 35.1793 8.77476 35.1793 10.0982V12.4981H36.2887H37.4401H37.75V12.4982Z" fill="#B6B1B7"/>
<path fill-rule="evenodd" clip-rule="evenodd" d="M4.38446 51.7709H32.9637C33.3405 51.7709 33.822 51.4693 34.0021 51.0841L37.205 44.1107L37.8121 42.9212V34.7961L37.205 35.9856L35.7145 38.9132L32.5241 45.1745C32.3315 45.5515 31.8668 45.8614 31.49 45.8614H4.38446V51.7709Z" fill="#FCB788"/>
<path fill-rule="evenodd" clip-rule="evenodd" d="M42.6605 51.7709H71.2398V45.8614H44.1385C43.7617 45.8614 43.2927 45.5515 43.1001 45.1745L37.8121 34.7961V42.9212L41.6263 51.0841C41.8022 51.4693 42.2837 51.7709 42.6605 51.7709Z" fill="#DB9975"/>
<path fill-rule="evenodd" clip-rule="evenodd" d="M32.5249 45.1745L35.7152 38.9132L37.2058 35.9856L37.8129 34.7961H36.268H33.7977H31.4824L28.5515 40.5422L26.1901 45.1744C25.9975 45.5513 25.5328 45.8612 25.156 45.8612H31.4906C31.8676 45.8614 32.3323 45.5513 32.5249 45.1745V45.1745Z" fill="#FFCBBE"/>
<path fill-rule="evenodd" clip-rule="evenodd" d="M71.2421 45.8617H74.0976C74.4744 45.8617 74.6293 45.5518 74.4367 45.1748L69.496 35.4829C69.3034 35.1018 68.8387 34.7961 68.4619 34.7961H64.7942H62.3908C62.7676 34.7961 63.2325 35.1018 63.4251 35.4829L63.848 36.308L68.3658 45.1748C68.5584 45.5518 68.4034 45.8617 68.0266 45.8617H71.2421Z" fill="#FFCBBE"/>
<path d="M75.4217 44.6719L70.4825 34.9825C70.2988 34.6193 70.0045 34.3054 69.6604 34.0773L71.8676 15.3002C72.2682 11.9261 69.9419 9.12952 66.2087 8.49127C65.5928 8.35745 64.2387 8.08271 62.6615 7.76809L63.2754 4.60728C63.3735 4.10743 63.269 3.59872 62.9813 3.1748C62.6944 2.75221 62.2618 2.46816 61.7713 2.37673L49.7032 0.0358459C49.2045 -0.0619372 48.6979 0.0419019 48.2751 0.328161C47.855 0.612648 47.5703 1.04233 47.4731 1.53893L46.8551 4.70506C45.2798 4.40831 43.9256 4.1575 43.3033 4.05145C40.3147 3.40582 37.5503 4.4733 36.1827 6.68731C35.9161 6.62217 35.6378 6.58672 35.3514 6.58672H34.734V2.66063C34.734 2.04764 34.2376 1.55281 33.6261 1.55281H28.7061C28.5156 1.55281 28.328 1.60156 28.1625 1.69461L25.7462 3.05649C25.2144 3.35633 25.0254 4.03136 25.3252 4.56459C25.6265 5.09782 26.3016 5.28688 26.8348 4.98704L28.9972 3.76844H32.5185V6.58657H31.9011C29.9677 6.58657 28.3946 8.16114 28.3946 10.0989V11.3899H27.4005C25.9146 11.3899 24.705 12.5996 24.705 14.0854V21.4026C24.4022 21.379 24.1082 21.3494 23.8217 21.3199C22.2383 21.1589 20.7421 21.0053 18.8574 21.9447C16.9624 22.8723 16.1722 24.1513 15.3361 25.5073C14.4883 26.8795 13.54 28.4155 11.1458 30.2501C10.3762 28.7272 9.15025 27.8042 7.7708 27.7141C6.61867 27.6402 5.54645 28.1675 4.90392 29.1291C4.12845 30.2916 4.12402 31.8483 4.88915 33.3992C5.07379 33.7744 5.27172 34.1392 5.48442 34.4908C5.34852 34.64 5.23331 34.8039 5.14469 34.9797L0.199552 44.6793C-0.0737085 45.2258 -0.0663231 45.8063 0.221709 46.2701C0.492015 46.7073 0.98093 46.9687 1.52893 46.9687H3.27765V59.0243C3.27765 59.6373 3.77395 60.1321 4.38546 60.1321C4.99698 60.1321 5.49328 59.6373 5.49328 59.0243V46.9687H31.4906C32.2793 46.9687 33.1301 46.4267 33.5127 45.6778L36.7045 39.4108V71.7844H5.49328V64.1437C5.49328 63.5307 4.99698 63.0359 4.38546 63.0359C3.77395 63.0359 3.27765 63.5307 3.27765 64.1437V72.192C3.27765 73.1891 4.08857 74 5.08413 74H70.5417C71.5373 74 72.3482 73.1891 72.3482 72.192V46.9686H74.0955C74.6479 46.9686 75.1383 46.7057 75.4086 46.264C75.695 45.7959 75.6994 45.2155 75.4217 44.6719V44.6719ZM49.588 2.26905L61.0417 4.49059L60.4891 7.33575C58.0251 6.8492 51.3721 5.56177 49.0323 5.11628L49.588 2.26905ZM42.8553 6.22129C42.8724 6.22498 50.2311 7.59764 53.042 8.1449L47.9737 29.277C47.831 29.8719 48.1976 30.4699 48.7926 30.6125C48.8794 30.6334 48.9663 30.6434 49.0518 30.6434C49.5524 30.6434 50.0063 30.3018 50.1281 29.7936L55.2186 8.56956C57.8422 9.08033 65.7974 10.6688 65.8151 10.6717C67.9483 11.0298 69.9667 12.5191 69.6676 15.0405L67.4753 33.6889H63.0117L64.5922 19.0589C64.651 18.4942 64.2597 17.9601 63.7014 17.8523L58.7107 16.8848C58.1088 16.7675 57.5288 17.161 57.4122 17.7615C57.2958 18.362 57.6883 18.9434 58.2889 19.0598L62.2789 19.8334L60.7813 33.6889H42.546V16.0092L45.5405 16.5887C45.6115 16.6024 45.6824 16.609 45.7521 16.609C46.2722 16.609 46.7362 16.2411 46.8385 15.7116C46.9548 15.111 46.562 14.5297 45.9614 14.4135L42.5226 13.7481C42.3559 12.4211 41.2234 11.3899 39.8521 11.3899H38.858V10.0989C38.858 9.25109 38.5568 8.47281 38.0562 7.86543C39.0411 6.22587 41.0975 5.83547 42.8553 6.22129V6.22129ZM30.6101 10.0989C30.6101 9.38402 31.1891 8.80205 31.9011 8.80205H35.3514C35.6136 8.80205 35.8573 8.88137 36.0611 9.01682C36.0694 9.02288 36.078 9.02834 36.0864 9.03425C36.4218 9.26866 36.6422 9.65832 36.6422 10.0989V11.3899H30.6099V10.0989H30.6101ZM17.2224 26.6698C17.9978 25.4113 18.5104 24.5813 19.8381 23.9314C21.1557 23.2756 22.1275 23.3745 23.5972 23.5237C25.3844 23.7069 27.5763 23.9299 31.1285 22.9033L32.7711 26.2311C32.777 26.2429 32.7814 26.2547 32.7873 26.2665C29.8052 27.0745 28.1568 26.7879 26.6843 26.5294C25.2264 26.2739 23.8484 26.0331 21.9134 26.9962C19.983 27.943 19.1825 29.3225 18.3361 30.7833C17.828 31.6592 17.2578 32.64 16.3494 33.6886H12.8444L12.1443 32.2706C15.1205 30.0758 16.2785 28.2 17.2224 26.6698V26.6698ZM31.9365 19.6524C31.5185 18.8061 31.4712 18.0335 31.8065 17.533C32.0148 17.2228 32.3471 17.0588 32.7208 17.0824C33.3205 17.1223 33.9025 17.629 34.3205 18.4753C35.7134 21.2979 35.8582 24.0305 35.3633 26.7305C35.1979 26.2283 34.9955 25.7349 34.7577 25.2519L31.9365 19.6524ZM33.0532 33.6887H19.1426C19.5901 33.0373 19.9417 32.4317 20.2519 31.8955C21.0421 30.5337 21.562 29.6357 22.8942 28.9829C24.1837 28.3418 24.9812 28.4807 26.3017 28.7126C27.863 28.9858 29.9485 29.3492 33.5066 28.3669C33.8671 30.0905 33.7164 31.9118 33.0532 33.6887ZM6.74718 30.3594C6.94658 30.0595 7.26859 29.9015 7.62752 29.9251C8.21097 29.962 8.77964 30.4583 9.18584 31.2811L10.3734 33.6886H7.59502C7.33653 33.2883 7.09429 32.8644 6.87716 32.4212C6.46948 31.5972 6.42222 30.8453 6.74718 30.3594V30.3594ZM31.5406 44.666C31.5244 44.6926 31.4971 44.7468 31.4358 44.7531H2.64841L7.11645 35.9884C7.1327 35.9618 7.15928 35.9072 7.27302 35.9042H36.0057L31.5406 44.666ZM35.4518 33.6887C37.1815 29.5693 39.3541 23.6701 36.307 17.4946C35.5316 15.9215 34.2777 14.9645 32.8656 14.8714C31.6987 14.7946 30.6147 15.3293 29.9647 16.3012C29.1789 17.4784 29.173 19.0558 29.9485 20.6334L30.0785 20.8948C28.8495 21.2227 27.8216 21.3778 26.9206 21.4354V14.0857C26.9206 13.8258 27.1407 13.6057 27.4007 13.6057H39.8521C40.112 13.6057 40.3306 13.8258 40.3306 14.0857V33.6889H35.4518V33.6887ZM60.1921 44.7487C60.1921 44.7487 60.1921 44.7487 60.1906 44.7487C59.5791 44.7487 59.0843 45.245 59.0828 45.8565C59.0828 46.468 59.5791 46.9643 60.1906 46.9643L70.1326 46.9687V71.7844H38.9199V39.4107L42.1147 45.6776C42.4957 46.4265 43.348 46.9686 44.1397 46.9686L55.0756 46.9642C55.6871 46.9642 56.1834 46.4679 56.1834 45.8564C56.182 45.2448 55.6871 44.7485 55.0756 44.7485C55.0742 44.7485 55.0742 44.7485 55.0742 44.7485L44.1929 44.753C44.1301 44.7357 44.1013 44.6924 44.088 44.6717L39.62 35.9041H68.4074C68.4531 35.9041 68.4871 35.9203 68.5078 35.9853L72.9773 44.753L60.1921 44.7487Z" fill="black"/>
</svg>
